<svg viewBox="0 -46 512 512" xmlns="http://www.w3.org/2000/svg">
  <path fill="orange" d="m512 121.863281-380.523438-50.601562-12.957031-71.261719h-118.519531v30h93.480469l60 329.800781h30.097656c-1.664063 4.695313-2.578125 9.941407-2.578125 15.199219 0 24.8125 20.1875 45 45 45s45-20.1875 45-45c0-5.257812-.914062-10.503906-2.578125-15.199219h96.160156c-1.667969 4.695313-2.582031 9.941407-2.582031 15.199219 0 24.8125 20.1875 45 45 45s45-20.1875 45-45c0-5.257812-.914062-10.304688-2.578125-15h32.578125v-30h-303.480469l-5.457031-30h338.9375zm-271 253.136719c0 8.269531-6.730469 15-15 15s-15-6.730469-15-15 6.730469-15 15-15 15 6.730469 15 15zm181 0c0 8.269531-6.730469 15-15 15s-15-6.730469-15-15 6.730469-15 15-15 15 6.730469 15 15zm60-195h-60v-39.839844l60 7.976563zm-181 30v60h-60v-60zm-60-30v-63.910156l60 7.976562v55.933594zm90 30h61v60h-61zm0-30v-51.941406l61 8.109375v43.832031zm-120-67.898438v67.898438h-59.753906l-14.132813-77.726562zm-54.300781 97.898438h54.300781v60h-43.390625zm265.300781 60v-60h60v60zm0 0"/>
</svg>
